<?xml version="1.0" encoding="UTF-8"?>
<svg id="Calque_2" xmlns="http://www.w3.org/2000/svg" viewBox="0 0 145.06 130">
  <defs>
    <style>
      .cls-1 {
        fill: #fff;
      }
    </style>
  </defs>
  <path class="cls-1" d="M65,10c30.33,0,55,24.67,55,55s-24.67,55-55,55S10,95.33,10,65,34.67,10,65,10M65,0C29.1,0,0,29.1,0,65s29.1,65,65,65,65-29.1,65-65S100.9,0,65,0h0Z"/>
  <path class="cls-1" d="M65,25.5s0,0,0,0v39.49h39.5-39.5v39.5V25.5M65,20.5c-2.76,0-5,2.24-5,5v34.5H25.5c-1.32,0-2.57.52-3.55,1.48-.94.95-1.45,2.21-1.45,3.52,0,2.76,2.24,5,5,5h34.5v34.5c0,2.76,2.24,5,5,5s5-2.24,5-5v-34.5h34.5c2.76,0,5-2.24,5-5s-2.24-5-5-5h-34.5V25.5c0-1.32-.52-2.57-1.48-3.55-.95-.94-2.21-1.45-3.52-1.45h0Z"/>
</svg>