<?xml version="1.0" encoding="UTF-8"?>
<svg xmlns="http://www.w3.org/2000/svg" version="1.1" viewBox="0 0 145.1 130">
  <defs>
    <style>
      .cls-1 {
        fill: none;
        stroke: #fafaf5;
        stroke-miterlimit: 10;
        stroke-width: 7px;
      }
    </style>
  </defs>
  <!-- Generator: Adobe Illustrator 28.6.0, SVG Export Plug-In . SVG Version: 1.2.0 Build 709)  -->
  <g>
    <g id="Calque_1">
      <g>
        <circle class="cls-1" cx="72.5" cy="65" r="20.8"/>
        <path class="cls-1" d="M78.5,12.4h0c1.1,7.4,10.5,9.9,15.2,4.1h0c4.3-5.4,12.9-.5,10.3,6h0c-2.7,7,4.1,13.8,11.1,11.1h0c6.4-2.5,11.4,6,6,10.3h0c-5.8,4.7-3.3,14.1,4.1,15.2h0c6.8,1,6.8,10.9,0,11.9h0c-7.4,1.1-9.9,10.5-4.1,15.2h0c5.4,4.3.5,12.9-6,10.3h0c-7-2.7-13.8,4.1-11.1,11.1h0c2.5,6.4-6,11.4-10.3,6h0c-4.7-5.8-14.1-3.3-15.2,4.1h0c-1,6.8-10.9,6.8-11.9,0h0c-1.1-7.4-10.5-9.9-15.2-4.1h0c-4.3,5.4-12.9.5-10.3-6h0c2.7-7-4.1-13.8-11.1-11.1h0c-6.4,2.5-11.4-6-6-10.3h0c5.8-4.7,3.3-14.1-4.1-15.2h0c-6.8-1-6.8-10.9,0-11.9h0c7.4-1.1,9.9-10.5,4.1-15.2h0c-5.4-4.3-.5-12.9,6-10.3h0c7,2.7,13.8-4.1,11.1-11.1h0c-2.5-6.4,6-11.4,10.3-6h0c4.7,5.8,14.1,3.3,15.2-4.1h0c1-6.8,10.9-6.8,11.9,0Z"/>
      </g>
    </g>
  </g>
</svg>